<?xml version="1.0" encoding="UTF-8"?>
<svg width="656px" height="981px" viewBox="0 0 656 981" version="1.1" xmlns="http://www.w3.org/2000/svg" xmlns:xlink="http://www.w3.org/1999/xlink">
    <!-- Generator: Sketch 51.2 (57519) - http://www.bohemiancoding.com/sketch -->
    <title>pretty picture</title>
    <desc>Created with Sketch.</desc>
    <defs>
        <circle id="path-1" cx="161.5" cy="161.5" r="161.5"></circle>
    </defs>
    <g id="Welcome" stroke="none" stroke-width="1" fill="none" fill-rule="evenodd">
        <g id="landing-page" transform="translate(-26.000000, -19.000000)">
            <g id="pretty-picture" transform="translate(26.000000, 19.000000)">
                <g id="stars" fill="#FFE066">
                    <path d="M573.895211,366 C572.416811,376.491436 571.23351,382.402754 570.34531,383.733954 C569.45711,385.065154 565.008674,386.996868 557,389.529096 C564.891195,390.89557 569.339632,392.151554 570.34531,393.297048 C571.528039,394.644207 572.711339,399.211858 573.895211,407 C575.03333,399.693389 576.302071,395.125739 577.701435,393.297048 C579.100799,391.468358 583.200321,390.212374 590,389.529096 C583.104707,387.126006 579.005186,385.194292 577.701435,383.733954 C576.397685,382.273616 575.128943,376.362298 573.895211,366 Z" id="Path-98"></path>
                    <path d="M513.895211,41 C512.416811,51.4914362 511.23351,57.4027542 510.34531,58.7339542 C509.45711,60.0651542 505.008674,61.9968682 497,64.5290961 C504.891195,65.8955695 509.339632,67.1515535 510.34531,68.2970482 C511.528039,69.6442075 512.711339,74.2118581 513.895211,82 C515.03333,74.6933893 516.302071,70.1257387 517.701435,68.2970482 C519.100799,66.4683577 523.200321,65.2123737 530,64.5290961 C523.104707,62.1260061 519.005186,60.1942921 517.701435,58.7339542 C516.397685,57.2736163 515.128943,51.3622982 513.895211,41 Z" id="Path-98"></path>
                    <path d="M62.8952111,243 C61.4168106,253.491436 60.2335103,259.402754 59.3453103,260.733954 C58.4571103,262.065154 54.0086735,263.996868 46,266.529096 C53.8911949,267.89557 58.3396317,269.151554 59.3453103,270.297048 C60.5280389,271.644207 61.7113392,276.211858 62.8952111,284 C64.0333298,276.693389 65.3020712,272.125739 66.7014352,270.297048 C68.1007992,268.468358 72.2003208,267.212374 79,266.529096 C72.1047073,264.126006 68.0051857,262.194292 66.7014352,260.733954 C65.3976847,259.273616 64.1289433,253.362298 62.8952111,243 Z" id="Path-98"></path>
                    <path d="M265.895211,0 C264.416811,10.4914362 263.23351,16.4027542 262.34531,17.7339542 C261.45711,19.0651542 257.008674,20.9968682 249,23.5290961 C256.891195,24.8955695 261.339632,26.1515535 262.34531,27.2970482 C263.528039,28.6442075 264.711339,33.2118581 265.895211,41 C267.03333,33.6933893 268.302071,29.1257387 269.701435,27.2970482 C271.100799,25.4683577 275.200321,24.2123737 282,23.5290961 C275.104707,21.1260061 271.005186,19.1942921 269.701435,17.7339542 C268.397685,16.2736163 267.128943,10.3622982 265.895211,0 Z" id="Path-98"></path>
                    <path d="M150.895211,550 C149.416811,560.491436 148.23351,566.402754 147.34531,567.733954 C146.45711,569.065154 142.008674,570.996868 134,573.529096 C141.891195,574.89557 146.339632,576.151554 147.34531,577.297048 C148.528039,578.644207 149.711339,583.211858 150.895211,591 C152.03333,583.693389 153.302071,579.125739 154.701435,577.297048 C156.100799,575.468358 160.200321,574.212374 167,573.529096 C160.104707,571.126006 156.005186,569.194292 154.701435,567.733954 C153.397685,566.273616 152.128943,560.362298 150.895211,550 Z" id="Path-98"></path>
                    <path d="M606.895211,187 C605.416811,197.491436 604.23351,203.402754 603.34531,204.733954 C602.45711,206.065154 598.008674,207.996868 590,210.529096 C597.891195,211.89557 602.339632,213.151554 603.34531,214.297048 C604.528039,215.644207 605.711339,220.211858 606.895211,228 C608.03333,220.693389 609.302071,216.125739 610.701435,214.297048 C612.100799,212.468358 616.200321,211.212374 623,210.529096 C616.104707,208.126006 612.005186,206.194292 610.701435,204.733954 C609.397685,203.273616 608.128943,197.362298 606.895211,187 Z" id="Path-98"></path>
                    <path d="M639.895211,611 C638.416811,621.491436 637.23351,627.402754 636.34531,628.733954 C635.45711,630.065154 631.008674,631.996868 623,634.529096 C630.891195,635.89557 635.339632,637.151554 636.34531,638.297048 C637.528039,639.644207 638.711339,644.211858 639.895211,652 C641.03333,644.693389 642.302071,640.125739 643.701435,638.297048 C645.100799,636.468358 649.200321,635.212374 656,634.529096 C649.104707,632.126006 645.005186,630.194292 643.701435,628.733954 C642.397685,627.273616 641.128943,621.362298 639.895211,611 Z" id="Path-98"></path>
                    <path d="M393.895211,427 C392.416811,437.491436 391.23351,443.402754 390.34531,444.733954 C389.45711,446.065154 385.008674,447.996868 377,450.529096 C384.891195,451.89557 389.339632,453.151554 390.34531,454.297048 C391.528039,455.644207 392.711339,460.211858 393.895211,468 C395.03333,460.693389 396.302071,456.125739 397.701435,454.297048 C399.100799,452.468358 403.200321,451.212374 410,450.529096 C403.104707,448.126006 399.005186,446.194292 397.701435,444.733954 C396.397685,443.273616 395.128943,437.362298 393.895211,427 Z" id="Path-98"></path>
                    <path d="M62.8952111,740 C61.4168106,750.491436 60.2335103,756.402754 59.3453103,757.733954 C58.4571103,759.065154 54.0086735,760.996868 46,763.529096 C53.8911949,764.89557 58.3396317,766.151554 59.3453103,767.297048 C60.5280389,768.644207 61.7113392,773.211858 62.8952111,781 C64.0333298,773.693389 65.3020712,769.125739 66.7014352,767.297048 C68.1007992,765.468358 72.2003208,764.212374 79,763.529096 C72.1047073,761.126006 68.0051857,759.194292 66.7014352,757.733954 C65.3976847,756.273616 64.1289433,750.362298 62.8952111,740 Z" id="Path-98"></path>
                    <path d="M185.895211,880 C184.416811,890.491436 183.23351,896.402754 182.34531,897.733954 C181.45711,899.065154 177.008674,900.996868 169,903.529096 C176.891195,904.89557 181.339632,906.151554 182.34531,907.297048 C183.528039,908.644207 184.711339,913.211858 185.895211,921 C187.03333,913.693389 188.302071,909.125739 189.701435,907.297048 C191.100799,905.468358 195.200321,904.212374 202,903.529096 C195.104707,901.126006 191.005186,899.194292 189.701435,897.733954 C188.397685,896.273616 187.128943,890.362298 185.895211,880 Z" id="Path-98"></path>
                    <path d="M16.8952111,940 C15.4168106,950.491436 14.2335103,956.402754 13.3453103,957.733954 C12.4571103,959.065154 8.00867352,960.996868 0,963.529096 C7.89119492,964.89557 12.3396317,966.151554 13.3453103,967.297048 C14.5280389,968.644207 15.7113392,973.211858 16.8952111,981 C18.0333298,973.693389 19.3020712,969.125739 20.7014352,967.297048 C22.1007992,965.468358 26.2003208,964.212374 33,963.529096 C26.1047073,961.126006 22.0051857,959.194292 20.7014352,957.733954 C19.3976847,956.273616 18.1289433,950.362298 16.8952111,940 Z" id="Path-98"></path>
                    <path d="M623.895211,826 C622.416811,836.491436 621.23351,842.402754 620.34531,843.733954 C619.45711,845.065154 615.008674,846.996868 607,849.529096 C614.891195,850.89557 619.339632,852.151554 620.34531,853.297048 C621.528039,854.644207 622.711339,859.211858 623.895211,867 C625.03333,859.693389 626.302071,855.125739 627.701435,853.297048 C629.100799,851.468358 633.200321,850.212374 640,849.529096 C633.104707,847.126006 629.005186,845.194292 627.701435,843.733954 C626.397685,842.273616 625.128943,836.362298 623.895211,826 Z" id="Path-98"></path>
                    <path d="M473.895211,920 C472.416811,930.491436 471.23351,936.402754 470.34531,937.733954 C469.45711,939.065154 465.008674,940.996868 457,943.529096 C464.891195,944.89557 469.339632,946.151554 470.34531,947.297048 C471.528039,948.644207 472.711339,953.211858 473.895211,961 C475.03333,953.693389 476.302071,949.125739 477.701435,947.297048 C479.100799,945.468358 483.200321,944.212374 490,943.529096 C483.104707,941.126006 479.005186,939.194292 477.701435,937.733954 C476.397685,936.273616 475.128943,930.362298 473.895211,920 Z" id="Path-98"></path>
                    <path d="M29.8952111,20 C28.4168106,30.4914362 27.2335103,36.4027542 26.3453103,37.7339542 C25.4571103,39.0651542 21.0086735,40.9968682 13,43.5290961 C20.8911949,44.8955695 25.3396317,46.1515535 26.3453103,47.2970482 C27.5280389,48.6442075 28.7113392,53.2118581 29.8952111,61 C31.0333298,53.6933893 32.3020712,49.1257387 33.7014352,47.2970482 C35.1007992,45.4683577 39.2003208,44.2123737 46,43.5290961 C39.1047073,41.1260061 35.0051857,39.1942921 33.7014352,37.7339542 C32.3976847,36.2736163 31.1289433,30.3622982 29.8952111,20 Z" id="Path-98"></path>
                </g>
                <g id="rocket" transform="translate(95.000000, 134.000000)">
                    <path d="M61.4988401,219 C23.496921,289.813357 10.9806243,329.632655 23.94995,338.457896 C36.9192758,347.283136 68.3337906,319.746231 118.193494,255.847181" id="Path-90" fill="#DED9AD"></path>
                    <path d="M67.2645433,223 C41.5434606,269.283045 34.7140284,296.013595 46.7762465,303.191651 C58.8384647,310.369707 80.6672935,293.411764 112.262733,252.31782" id="Path-91" fill="#E3A455"></path>
                    <path d="M53.432522,207.07491 L62.3762127,193.856737 C64.2031709,191.156615 67.8518743,190.4094 70.5931586,192.173994 L137.107858,234.990214 C139.83609,236.746407 140.673955,240.353295 138.999224,243.132277 L130.666251,256.959679 C128.955852,259.797847 125.26851,260.712085 122.430342,259.001685 C122.375775,258.968801 122.321735,258.93505 122.268243,258.900444 L55.1428257,215.474995 C52.3605715,213.675071 51.5642354,209.960482 53.3641592,207.178228 C53.3865907,207.143554 53.4093795,207.109113 53.432522,207.07491 Z" id="Path-92" fill="#247BA0"></path>
                    <path d="M192,10.4726093 C198.641538,21.2225873 206.505851,29.768564 215.59294,36.1105394 C224.680028,42.4525148 237.045693,47.1795939 252.689936,50.2917766 C253.06612,38.8270755 252.606227,30.2452356 251.31026,24.5462571 C249.366308,15.9977892 246.250392,5.25689489 241.687334,1.90817365 C237.124276,-1.4405476 224.831012,0.315838779 215.59294,1.90817365 C209.434225,2.96973023 201.569912,5.82454212 192,10.4726093 Z" id="Path-94" fill="#81D6E3"></path>
                    <path d="M72.3196852,185.912245 L51.7039293,188.803637 C35.6919268,212.495765 26.1390955,225.053656 23.0454355,226.47731 C18.4049456,228.612791 13.0876365,229.325915 9.85913129,229.325915 C6.63062612,229.325915 1.81639332,229.713595 0.145090846,226.47731 C-0.969110802,224.319787 4.33393583,212.354004 16.0542308,190.579963 C30.2051968,169.338387 38.5236759,157.656125 41.0096681,155.533178 C44.7386564,152.348757 61.378142,143.218303 72.3196852,139.739434 C79.6140474,137.420189 85.7352413,137.420189 90.683267,139.739434" id="Path-97" fill="#81D6E3"></path>
                    <path d="M181.141958,256.239433 L160.526202,259.130825 C144.514199,282.822953 134.961368,295.380844 131.867708,296.804498 C127.227218,298.939979 121.909909,299.653103 118.681404,299.653103 C115.452899,299.653103 110.638666,300.040783 108.967363,296.804498 C107.853162,294.646975 113.156208,282.681192 124.876503,260.907151 C139.027469,239.665575 147.345948,227.983313 149.831941,225.860366 C153.560929,222.675945 170.200415,213.545491 181.141958,210.066622 C188.43632,207.747377 194.557514,207.747377 199.50554,210.066622" id="Path-97" fill="#81D6E3" transform="translate(154.163906, 253.997387) scale(-1, 1) rotate(-66.000000) translate(-154.163906, -253.997387) "></path>
                    <path d="M136.463715,234.883585 L70.8430839,191.872379 C83.182509,158.869766 92.9904039,135.072659 100.266768,120.481059 C113.507176,93.9295129 133.824186,63.9918865 139.830468,54.9933594 C150.787945,38.5770206 168.21224,23.7591649 192.10335,10.5397924 C200.808814,23.1970375 208.769343,31.8992458 215.984937,36.6464174 C223.20053,41.393589 235.279016,45.8751394 252.220395,50.0910684 C250.951548,68.7999467 247.009589,86.6607178 240.394519,103.673382 C236.495569,113.700718 223.107297,134.26487 199.822036,165.819175 C189.529231,179.767154 168.40979,202.788624 136.463715,234.883585 Z" id="Path-2" fill="#F25F5C"></path>
                    <circle id="Oval-2" fill="#50514F" cx="183" cy="91" r="36"></circle>
                    <circle id="Oval" fill="#FFE066" cx="183.5" cy="90.5" r="21.5"></circle>
                </g>
                <g id="earth-lines" transform="translate(237.000000, 549.000000)">
                    <mask id="mask-2" fill="white">
                        <use xlink:href="#path-1"></use>
                    </mask>
                    <use id="Mask" fill="#81D6E3" opacity="0.926004464" xlink:href="#path-1"></use>
                    <g mask="url(#mask-2)" fill="#337C4F">
                        <g transform="translate(0.000000, -2.000000)">
                            <path d="M125.985178,305.960918 C116.54724,306.451639 109.396171,302.321196 104.531972,293.569588 C99.6677731,284.817981 93.2743345,264.579311 85.3516564,232.853579 C73.6103112,227.00328 65.9197183,221.656261 62.2798777,216.812522 C58.640037,211.968784 56.2348863,203.880835 55.0644256,192.548675 L38.2543237,171.457851 L0,104.935662 L0,70.0685065 L97.8600371,0 C140.892833,3.78602078 164.12582,6.84637532 167.558999,9.18106362 C172.708767,12.6830961 168.799994,30.9661909 164.217042,38.3803888 C154.382632,54.2902793 140.941417,64.3191008 137.599675,65.8277846 C130.251124,69.1454071 129.933562,38.6724312 125.985178,34.0945529 C121.73572,29.1676014 114.937138,38.1025052 113.604067,38.3803888 C109.746525,39.1845076 118.49221,59.2455248 117.255963,70.0685065 C116.019716,80.8914882 103.092391,76.4067594 101.73503,83.7049838 C100.377668,91.0032083 111.602051,102.196404 110.77119,104.935662 C107.225423,116.625665 92.3298145,116.06469 89.3988377,120.674454 C81.5745679,132.980263 68.2908917,139.839795 66.9559218,142.217923 C63.5646278,148.259208 64.7863452,157.570991 62.2798777,157.570991 C61.4103911,157.570991 58.3341614,149.437882 55.0644256,146.249617 C48.9084988,140.247075 40.9904484,138.662723 38.2543237,149.706858 C34.0648995,166.617112 44.8848049,155.772443 47.0074951,160.752284 C50.5786798,169.1303 51.8432916,177.099444 52.793033,179.473116 C54.1234162,182.79812 58.0664872,176.003617 66.9559218,174.674484 C73.2436147,173.734358 83.9367252,178.05014 89.3988377,179.473116 C102.583193,182.907872 123.176826,190.27334 128.72672,196.927747 C134.276614,203.582154 130.426889,217.698549 128.72672,226.627838 C125.609022,243.001989 117.543437,256.197464 117.255963,267.630506 C116.811722,285.298311 119.72146,298.075115 125.985178,305.960918 Z" id="Path-93"></path>
                            <path d="M212.626648,270 C210.26875,270 202.668566,265.997073 199.655688,257.895328 C196.637173,249.778424 198.203724,237.548506 193.441113,222.346851 C190.415602,212.689801 195.38638,207.0132 185.598401,193.736223 C175.810422,180.459246 158.328137,197.06575 150.229709,177.248548 C142.131281,157.431347 157.795127,139.037375 169.965489,130.447777 C182.135852,121.858178 189.816918,138.461848 202.073805,140.658023 C214.330691,142.854199 213.852468,139.136211 223.33018,148.916714 C232.807893,158.697217 232.63871,171.67091 237.53154,177.248548 C242.42437,182.826187 251,177.248548 251,180.459246 C251,181.681393 243.25865,193.108847 237.53154,209.072159 C233.661199,219.860054 233.347035,232.051832 229.631748,242.790196 C224.401805,257.906403 216.005637,270 212.626648,270 Z" id="Path-95"></path>
                            <path d="M176.776855,121.03376 C167.964373,125.529557 163.016154,125.529557 161.932199,121.03376 C160.306265,114.290064 159.462017,108.726632 171.301049,98.3223945 C183.140081,87.9181574 206.660056,87.422325 212.749316,76.3752654 C218.838577,65.3282058 176.225307,65.5088266 190.79364,54.8114021 C200.505862,47.6797857 222.828721,43.8501881 257.762217,43.322609 L302.715821,4 L346,218 C330.813211,215.463019 319.39635,209.942002 311.749418,201.436952 C300.27902,188.679376 300.448785,164.870068 295.42691,161.751732 C290.405036,158.633396 281.918707,185.176844 281.918707,185.176844 C281.918707,185.176844 276.379866,158.114408 266.412667,155.80767 C256.445468,153.500932 257.473964,177.383366 246.238166,172.111383 C235.002369,166.839399 238.527997,147.786948 218.275296,132.894344 C204.773496,122.965941 190.940682,119.012413 176.776855,121.03376 Z" id="Path-96"></path>
                        </g>
                    </g>
                </g>
            </g>
        </g>
    </g>
</svg>