<?xml version="1.0" encoding="UTF-8"?>
<svg width="656px" height="670px" viewBox="0 0 656 670" version="1.1" xmlns="http://www.w3.org/2000/svg" xmlns:xlink="http://www.w3.org/1999/xlink">
    <!-- Generator: Sketch 51.2 (57519) - http://www.bohemiancoding.com/sketch -->
    <title>pretty picture</title>
    <desc>Created with Sketch.</desc>
    <defs>
        <circle id="path-1" cx="161.5" cy="161.5" r="161.5"></circle>
    </defs>
    <g id="Welcome" stroke="none" stroke-width="1" fill="none" fill-rule="evenodd">
        <g id="landing-page" transform="translate(-26.000000, -19.000000)">
            <g id="pretty-picture" transform="translate(26.000000, 19.000000)">
                             <g id="rocket" transform="translate(95.000000, 134.000000)">
                    <path d="M61.4988401,219 C23.496921,289.813357 10.9806243,329.632655 23.94995,338.457896 C36.9192758,347.283136 68.3337906,319.746231 118.193494,255.847181" id="Path-90" fill="#DED9AD"></path>
                    <path d="M67.2645433,223 C41.5434606,269.283045 34.7140284,296.013595 46.7762465,303.191651 C58.8384647,310.369707 80.6672935,293.411764 112.262733,252.31782" id="Path-91" fill="#E3A455"></path>
                    <path d="M53.432522,207.07491 L62.3762127,193.856737 C64.2031709,191.156615 67.8518743,190.4094 70.5931586,192.173994 L137.107858,234.990214 C139.83609,236.746407 140.673955,240.353295 138.999224,243.132277 L130.666251,256.959679 C128.955852,259.797847 125.26851,260.712085 122.430342,259.001685 C122.375775,258.968801 122.321735,258.93505 122.268243,258.900444 L55.1428257,215.474995 C52.3605715,213.675071 51.5642354,209.960482 53.3641592,207.178228 C53.3865907,207.143554 53.4093795,207.109113 53.432522,207.07491 Z" id="Path-92" fill="#247BA0"></path>
                    <path d="M192,10.4726093 C198.641538,21.2225873 206.505851,29.768564 215.59294,36.1105394 C224.680028,42.4525148 237.045693,47.1795939 252.689936,50.2917766 C253.06612,38.8270755 252.606227,30.2452356 251.31026,24.5462571 C249.366308,15.9977892 246.250392,5.25689489 241.687334,1.90817365 C237.124276,-1.4405476 224.831012,0.315838779 215.59294,1.90817365 C209.434225,2.96973023 201.569912,5.82454212 192,10.4726093 Z" id="Path-94" fill="#81D6E3"></path>
                    <path d="M72.3196852,185.912245 L51.7039293,188.803637 C35.6919268,212.495765 26.1390955,225.053656 23.0454355,226.47731 C18.4049456,228.612791 13.0876365,229.325915 9.85913129,229.325915 C6.63062612,229.325915 1.81639332,229.713595 0.145090846,226.47731 C-0.969110802,224.319787 4.33393583,212.354004 16.0542308,190.579963 C30.2051968,169.338387 38.5236759,157.656125 41.0096681,155.533178 C44.7386564,152.348757 61.378142,143.218303 72.3196852,139.739434 C79.6140474,137.420189 85.7352413,137.420189 90.683267,139.739434" id="Path-97" fill="#81D6E3"></path>
                    <path d="M181.141958,256.239433 L160.526202,259.130825 C144.514199,282.822953 134.961368,295.380844 131.867708,296.804498 C127.227218,298.939979 121.909909,299.653103 118.681404,299.653103 C115.452899,299.653103 110.638666,300.040783 108.967363,296.804498 C107.853162,294.646975 113.156208,282.681192 124.876503,260.907151 C139.027469,239.665575 147.345948,227.983313 149.831941,225.860366 C153.560929,222.675945 170.200415,213.545491 181.141958,210.066622 C188.43632,207.747377 194.557514,207.747377 199.50554,210.066622" id="Path-97" fill="#81D6E3" transform="translate(154.163906, 253.997387) scale(-1, 1) rotate(-66.000000) translate(-154.163906, -253.997387) "></path>
                    <path d="M136.463715,234.883585 L70.8430839,191.872379 C83.182509,158.869766 92.9904039,135.072659 100.266768,120.481059 C113.507176,93.9295129 133.824186,63.9918865 139.830468,54.9933594 C150.787945,38.5770206 168.21224,23.7591649 192.10335,10.5397924 C200.808814,23.1970375 208.769343,31.8992458 215.984937,36.6464174 C223.20053,41.393589 235.279016,45.8751394 252.220395,50.0910684 C250.951548,68.7999467 247.009589,86.6607178 240.394519,103.673382 C236.495569,113.700718 223.107297,134.26487 199.822036,165.819175 C189.529231,179.767154 168.40979,202.788624 136.463715,234.883585 Z" id="Path-2" fill="#F25F5C"></path>
                    <circle id="Oval-2" fill="#50514F" cx="183" cy="91" r="36"></circle>
                    <circle id="Oval" fill="#FFE066" cx="183.5" cy="90.5" r="21.5"></circle>
                </g>
                
            </g>
        </g>
    </g>
</svg>