<?xml version="1.0" encoding="UTF-8"?>
<svg width="656px" height="670px" viewBox="0 0 656 670" version="1.1" xmlns="http://www.w3.org/2000/svg" xmlns:xlink="http://www.w3.org/1999/xlink">
    <!-- Generator: Sketch 51.2 (57519) - http://www.bohemiancoding.com/sketch -->
    <title>pretty picture</title>
    <desc>Created with Sketch.</desc>
    <defs>
        <circle id="path-1" cx="161.5" cy="161.5" r="161.5"></circle>
    </defs>
    <g id="Welcome" stroke="none" stroke-width="1" fill="none" fill-rule="evenodd">
        <g id="landing-page" transform="translate(-26.000000, -19.000000)">
            <g id="pretty-picture" transform="translate(26.000000, 19.000000)">
                <g id="stars" fill="#FFE066">
                    <path d="M573.895211,366 C572.416811,376.491436 571.23351,382.402754 570.34531,383.733954 C569.45711,385.065154 565.008674,386.996868 557,389.529096 C564.891195,390.89557 569.339632,392.151554 570.34531,393.297048 C571.528039,394.644207 572.711339,399.211858 573.895211,407 C575.03333,399.693389 576.302071,395.125739 577.701435,393.297048 C579.100799,391.468358 583.200321,390.212374 590,389.529096 C583.104707,387.126006 579.005186,385.194292 577.701435,383.733954 C576.397685,382.273616 575.128943,376.362298 573.895211,366 Z" id="Path-98"></path>
                    <path d="M513.895211,41 C512.416811,51.4914362 511.23351,57.4027542 510.34531,58.7339542 C509.45711,60.0651542 505.008674,61.9968682 497,64.5290961 C504.891195,65.8955695 509.339632,67.1515535 510.34531,68.2970482 C511.528039,69.6442075 512.711339,74.2118581 513.895211,82 C515.03333,74.6933893 516.302071,70.1257387 517.701435,68.2970482 C519.100799,66.4683577 523.200321,65.2123737 530,64.5290961 C523.104707,62.1260061 519.005186,60.1942921 517.701435,58.7339542 C516.397685,57.2736163 515.128943,51.3622982 513.895211,41 Z" id="Path-98"></path>
                    <path d="M62.8952111,243 C61.4168106,253.491436 60.2335103,259.402754 59.3453103,260.733954 C58.4571103,262.065154 54.0086735,263.996868 46,266.529096 C53.8911949,267.89557 58.3396317,269.151554 59.3453103,270.297048 C60.5280389,271.644207 61.7113392,276.211858 62.8952111,284 C64.0333298,276.693389 65.3020712,272.125739 66.7014352,270.297048 C68.1007992,268.468358 72.2003208,267.212374 79,266.529096 C72.1047073,264.126006 68.0051857,262.194292 66.7014352,260.733954 C65.3976847,259.273616 64.1289433,253.362298 62.8952111,243 Z" id="Path-98"></path>
                    <path d="M265.895211,0 C264.416811,10.4914362 263.23351,16.4027542 262.34531,17.7339542 C261.45711,19.0651542 257.008674,20.9968682 249,23.5290961 C256.891195,24.8955695 261.339632,26.1515535 262.34531,27.2970482 C263.528039,28.6442075 264.711339,33.2118581 265.895211,41 C267.03333,33.6933893 268.302071,29.1257387 269.701435,27.2970482 C271.100799,25.4683577 275.200321,24.2123737 282,23.5290961 C275.104707,21.1260061 271.005186,19.1942921 269.701435,17.7339542 C268.397685,16.2736163 267.128943,10.3622982 265.895211,0 Z" id="Path-98"></path>
                    <path d="M150.895211,550 C149.416811,560.491436 148.23351,566.402754 147.34531,567.733954 C146.45711,569.065154 142.008674,570.996868 134,573.529096 C141.891195,574.89557 146.339632,576.151554 147.34531,577.297048 C148.528039,578.644207 149.711339,583.211858 150.895211,591 C152.03333,583.693389 153.302071,579.125739 154.701435,577.297048 C156.100799,575.468358 160.200321,574.212374 167,573.529096 C160.104707,571.126006 156.005186,569.194292 154.701435,567.733954 C153.397685,566.273616 152.128943,560.362298 150.895211,550 Z" id="Path-98"></path>
                    <path d="M606.895211,187 C605.416811,197.491436 604.23351,203.402754 603.34531,204.733954 C602.45711,206.065154 598.008674,207.996868 590,210.529096 C597.891195,211.89557 602.339632,213.151554 603.34531,214.297048 C604.528039,215.644207 605.711339,220.211858 606.895211,228 C608.03333,220.693389 609.302071,216.125739 610.701435,214.297048 C612.100799,212.468358 616.200321,211.212374 623,210.529096 C616.104707,208.126006 612.005186,206.194292 610.701435,204.733954 C609.397685,203.273616 608.128943,197.362298 606.895211,187 Z" id="Path-98"></path>
                    <path d="M639.895211,611 C638.416811,621.491436 637.23351,627.402754 636.34531,628.733954 C635.45711,630.065154 631.008674,631.996868 623,634.529096 C630.891195,635.89557 635.339632,637.151554 636.34531,638.297048 C637.528039,639.644207 638.711339,644.211858 639.895211,652 C641.03333,644.693389 642.302071,640.125739 643.701435,638.297048 C645.100799,636.468358 649.200321,635.212374 656,634.529096 C649.104707,632.126006 645.005186,630.194292 643.701435,628.733954 C642.397685,627.273616 641.128943,621.362298 639.895211,611 Z" id="Path-98"></path>
                    <path d="M393.895211,427 C392.416811,437.491436 391.23351,443.402754 390.34531,444.733954 C389.45711,446.065154 385.008674,447.996868 377,450.529096 C384.891195,451.89557 389.339632,453.151554 390.34531,454.297048 C391.528039,455.644207 392.711339,460.211858 393.895211,468 C395.03333,460.693389 396.302071,456.125739 397.701435,454.297048 C399.100799,452.468358 403.200321,451.212374 410,450.529096 C403.104707,448.126006 399.005186,446.194292 397.701435,444.733954 C396.397685,443.273616 395.128943,437.362298 393.895211,427 Z" id="Path-98"></path>
                    <path d="M62.8952111,740 C61.4168106,750.491436 60.2335103,756.402754 59.3453103,757.733954 C58.4571103,759.065154 54.0086735,760.996868 46,763.529096 C53.8911949,764.89557 58.3396317,766.151554 59.3453103,767.297048 C60.5280389,768.644207 61.7113392,773.211858 62.8952111,781 C64.0333298,773.693389 65.3020712,769.125739 66.7014352,767.297048 C68.1007992,765.468358 72.2003208,764.212374 79,763.529096 C72.1047073,761.126006 68.0051857,759.194292 66.7014352,757.733954 C65.3976847,756.273616 64.1289433,750.362298 62.8952111,740 Z" id="Path-98"></path>
                </g>
            </g>
        </g>
    </g>
</svg>